<svg class="inception-heart" version="1.1" id="Layer_1" xmlns="http://www.w3.org/2000/svg" xmlns:xlink="http://www.w3.org/1999/xlink" x="0px" y="0px"
	 width="604.748px" height="560px" viewBox="177.626 0 604.748 560" enable-background="new 177.626 0 604.748 560"
	 xml:space="preserve">
<path fill="#FF2E2E" d="M480.033,560c244.453-146.615,288.588-307.482,294.021-335.994c5.434-28.504,40.968-177.838-92.347-217.883
	C532.999-23.971,480.033,80.104,480.033,80.104S438.613,1.032,329.969,0.01C221.322-1.01,176.733,73.773,177.64,152.964
	C177.64,237.581,217.25,398.451,480.033,560z"/>
<path opacity="0.1" d="M480.006,336c48.891-29.323,57.718-61.496,58.804-67.198c1.087-5.701,8.194-35.568-18.469-43.577
	c-29.742-6.019-40.335,14.796-40.335,14.796s-8.284-15.814-30.013-16.019c-21.729-0.204-30.647,14.752-30.466,30.591
	C419.527,271.517,427.449,303.69,480.006,336z"/>
<path opacity="0.1" d="M480.011,378c85.559-51.315,101.005-107.619,102.907-117.598c1.902-9.977,14.339-62.243-32.321-76.259
	c-52.048-10.533-70.585,25.894-70.585,25.894s-14.497-27.675-52.523-28.033c-38.026-0.357-53.632,25.816-53.315,53.534
	C374.173,265.153,388.037,321.458,480.011,378z"/>
<path opacity="0.1" d="M480.018,434c134.449-80.639,158.724-169.115,161.711-184.796c2.988-15.677,22.533-97.812-50.79-119.836
	c-81.79-16.551-110.921,40.689-110.921,40.689s-22.781-43.49-82.535-44.052c-59.756-0.561-84.28,40.57-83.782,84.125
	C313.7,256.669,335.487,345.148,480.018,434z"/>
<path opacity="0.1" d="M480.024,499c183.341-109.961,216.44-230.612,220.515-251.995c4.076-21.378,30.727-133.379-69.26-163.413
	c-111.531-22.57-151.255,55.486-151.255,55.486s-31.065-59.304-112.548-60.07c-81.485-0.765-114.927,55.322-114.248,114.717
	C253.228,257.186,282.937,377.838,480.024,499z"/>
</svg>